<?xml version="1.0" standalone="no"?>
<!DOCTYPE svg PUBLIC "-//W3C//DTD SVG 20010904//EN"
 "http://www.w3.org/TR/2001/REC-SVG-20010904/DTD/svg10.dtd">
<svg version="1.0" xmlns="http://www.w3.org/2000/svg"
 width="700.000000pt" height="700.000000pt" viewBox="0 0 700.000000 700.000000"
 preserveAspectRatio="xMidYMid meet">
<metadata>
Created by potrace 1.11, written by Peter Selinger 2001-2013
</metadata>
<g transform="translate(0.000000,700.000000) scale(0.100000,-0.100000)"
fill="#000000" stroke="none">
<path d="M0 3500 l0 -3500 3500 0 3500 0 0 3500 0 3500 -3500 0 -3500 0 0
-3500z m2045 2845 c32 -55 91 -156 131 -224 40 -68 87 -158 104 -200 57 -141
64 -154 95 -172 48 -30 113 -25 162 11 60 45 153 174 300 421 l32 54 1 -123 0
-124 -272 -474 c-212 -370 -275 -474 -291 -474 -28 0 -188 55 -249 86 -115 58
-243 159 -406 318 -72 71 -95 88 -102 77 -17 -28 -59 -218 -79 -356 -49 -345
-75 -778 -68 -1156 6 -379 21 -439 111 -439 40 0 45 5 394 353 l353 352 24
-28 c40 -45 104 -161 166 -301 l59 -132 -15 -244 c-56 -917 -124 -1544 -236
-2180 l-31 -175 -242 -245 c-258 -262 -399 -418 -556 -616 l-98 -124 -37 98
c-209 546 -400 843 -542 842 -37 -1 -105 -32 -155 -71 -50 -40 -162 -184 -223
-289 -27 -44 -51 -80 -55 -80 -4 0 -14 34 -22 75 l-15 74 121 253 c207 431
312 623 381 697 80 86 153 121 250 121 125 0 214 -59 309 -204 29 -45 133
-229 231 -409 97 -181 184 -331 193 -334 8 -4 21 2 29 13 94 128 268 1653 233
2045 -12 136 -72 305 -130 367 -41 43 -126 24 -203 -47 -24 -23 -174 -196
-333 -386 -187 -224 -291 -341 -295 -332 -20 35 -113 568 -125 712 -6 68 44
706 117 1503 l30 332 442 625 c242 344 444 622 447 617 4 -4 33 -52 65 -107z
m2620 -49 c116 -182 238 -339 359 -464 l110 -112 -17 -208 c-10 -114 -17 -218
-17 -231 0 -18 18 1 72 80 116 168 415 628 547 844 68 110 125 202 128 205 2
3 9 -3 14 -12 19 -34 223 -315 302 -417 45 -57 119 -143 163 -189 l81 -85 -13
-116 c-108 -913 -219 -2158 -288 -3230 l-15 -225 34 -163 c35 -167 78 -342 93
-384 9 -23 14 -19 109 76 55 55 118 122 140 149 l40 50 7 -100 7 -100 -354
-630 c-194 -346 -358 -638 -365 -649 -14 -25 -13 -28 -46 161 -15 83 -58 293
-95 468 l-69 318 34 211 c157 981 273 2328 274 3170 0 247 -22 309 -151 434
-96 92 -187 160 -278 207 l-30 16 -40 -42 c-67 -74 -160 -188 -248 -306 l-86
-115 -113 -1356 c-62 -746 -114 -1401 -114 -1456 0 -87 11 -153 85 -513 l85
-412 -252 -440 c-139 -241 -256 -436 -260 -434 -4 3 -8 20 -8 37 0 87 -79 519
-133 732 l-23 90 18 105 c134 785 236 1940 289 3286 13 311 12 312 -9 364 -53
127 -158 247 -339 387 l-81 63 -204 -253 -205 -252 -97 -1180 c-118 -1417
-125 -1519 -126 -1659 0 -102 5 -132 85 -472 l84 -363 -243 -421 c-134 -232
-246 -423 -248 -425 -2 -3 -37 209 -78 471 l-74 475 18 142 c93 757 127 1149
211 2482 26 396 54 821 64 945 l17 225 -49 150 c-27 83 -53 153 -56 157 -4 4
-58 -55 -121 -132 -63 -76 -117 -139 -120 -139 -3 -1 -16 29 -28 66 l-22 68
267 465 c147 256 294 513 327 572 34 58 62 105 63 104 2 -1 47 -145 102 -320
l100 -318 -20 -236 c-11 -131 -18 -250 -17 -267 3 -25 59 62 352 545 357 587
386 634 391 628 2 -2 38 -57 80 -122z"/>
</g>
</svg>
